<svg class="animated" id="freepik_stories-business-competition" xmlns="http://www.w3.org/2000/svg" viewBox="0 0 500 500" version="1.1" xmlns:xlink="http://www.w3.org/1999/xlink" xmlns:svgjs="http://svgjs.com/svgjs"><style>svg#freepik_stories-business-competition:not(.animated) .animable {opacity: 0;}svg#freepik_stories-business-competition.animated #freepik--background-simple--inject-293 {animation: 1.5s Infinite  linear floating;animation-delay: 0s;}svg#freepik_stories-business-competition.animated #freepik--Clouds--inject-293 {animation: 6s Infinite  linear floating;animation-delay: 0s;}svg#freepik_stories-business-competition.animated #freepik--plants-1--inject-293 {animation: 1.5s Infinite  linear wind;animation-delay: 0s;}svg#freepik_stories-business-competition.animated #freepik--character-3--inject-293 {animation: 6s Infinite  linear shake;animation-delay: 0s;}svg#freepik_stories-business-competition.animated #freepik--character-1--inject-293 {animation: 6s Infinite  linear shake;animation-delay: 0s;}            @keyframes floating {                0% {                    opacity: 1;                    transform: translateY(0px);                }                50% {                    transform: translateY(-10px);                }                100% {                    opacity: 1;                    transform: translateY(0px);                }            }                    @keyframes wind {                0% {                    transform: rotate( 0deg );                }                25% {                    transform: rotate( 1deg );                }                75% {                    transform: rotate( -1deg );                }            }                    @keyframes shake {                10%, 90% {                    transform: translate3d(-1px, 0, 0);                  }                  20%, 80% {                    transform: translate3d(2px, 0, 0);                  }                  30%, 50%, 70% {                    transform: translate3d(-4px, 0, 0);                  }                  40%, 60% {                    transform: translate3d(4px, 0, 0);                  }            }        </style><g id="freepik--background-simple--inject-293" class="animable" style="transform-origin: 242.642px 245.678px;"><path d="M406.64,94c-17.16-17.58-36.82-32.2-57.71-42.44C317.11,36,282.06,28.46,247,28,144.57,26.7,136.77,152.81,105.27,170.34s-88.58,19.6-90.55,89.73c-1.24,44.11,8.59,89.47,36.22,123.84,25.31,31.48,62.49,47.43,99.13,59.22,41.13,13.23,84.76,26.22,128,17.29,44.41-9.17,75.61-46,112.08-70.91,23-15.68,43.57-32.18,57.74-57.34,1.7-3,3.29-6.07,4.8-9.18,19-39.09,22.7-84.18,12.23-126.48C455.56,158.55,434.36,122.4,406.64,94Z" style="fill: rgb(190, 212, 234); transform-origin: 242.642px 245.678px;" id="elnfd1aopm7w" class="animable"></path><g id="eljzapkbn8rem"><path d="M406.64,94c-17.16-17.58-36.82-32.2-57.71-42.44C317.11,36,282.06,28.46,247,28,144.57,26.7,136.77,152.81,105.27,170.34s-88.58,19.6-90.55,89.73c-1.24,44.11,8.59,89.47,36.22,123.84,25.31,31.48,62.49,47.43,99.13,59.22,41.13,13.23,84.76,26.22,128,17.29,44.41-9.17,75.61-46,112.08-70.91,23-15.68,43.57-32.18,57.74-57.34,1.7-3,3.29-6.07,4.8-9.18,19-39.09,22.7-84.18,12.23-126.48C455.56,158.55,434.36,122.4,406.64,94Z" style="fill: rgb(255, 255, 255); opacity: 0.7; transform-origin: 242.642px 245.678px;" class="animable"></path></g></g><g id="freepik--Clouds--inject-293" class="animable" style="transform-origin: 243.552px 119.223px;"><path d="M322.1,97.34a9.05,9.05,0,0,1-3.54,1.74c-3.55.79-13,.39-14.6,4.73a9.39,9.39,0,0,1-5.91,5.52s-7.49.4-7.89,2-3.15,4.34-3.15,4.34H416s4.34-6.7-2.76-13c-6.21-5.52-17.56,2.84-19-4" style="fill: none; stroke: rgb(38, 50, 56); stroke-linecap: round; stroke-linejoin: round; transform-origin: 352.162px 106.505px;" id="eloyb7eny6cu" class="animable"></path><path d="M393.07,88.63c-1.44-5.19-4.47-12.19-10.62-14.79-10.26-4.34-18.93,1.58-21.3,7.49s-3.94,9.86-13,4.73-17-4.73-19.72,2a30.81,30.81,0,0,1-2.93,5.56" style="fill: none; stroke: rgb(38, 50, 56); stroke-linecap: round; stroke-linejoin: round; transform-origin: 359.285px 82.9831px;" id="el6eimkgy5ccr" class="animable"></path><path d="M103.05,166.1h44.79s2.62-4-1.67-7.87-12.65,3.34-11.45-4.77c0,0-1-10-7.16-12.64a10,10,0,0,0-9.9.9" style="fill: none; stroke: rgb(38, 50, 56); stroke-linecap: round; stroke-linejoin: round; transform-origin: 125.841px 153.006px;" id="elv454e830u9s" class="animable"></path><path d="M114.68,145.35c-1.43,3.58-2.39,6-7.87,2.86s-10.26-2.86-11.93,1.2-3.82,6.2-6,6.67-7.87.24-8.83,2.87a5.71,5.71,0,0,1-3.58,3.34s-4.53.23-4.77,1.19a9.23,9.23,0,0,1-1.91,2.62H96" style="fill: none; stroke: rgb(38, 50, 56); stroke-linecap: round; stroke-linejoin: round; transform-origin: 92.235px 155.725px;" id="elxaz3lipezzm" class="animable"></path><path d="M327.25,166.1H348.4s2.62-4-1.67-7.87-12.64,3.34-11.45-4.77c0,0-.95-10-7.16-12.64s-11.44,1-12.88,4.53-2.38,6-7.87,2.86-10.26-2.86-11.92,1.2-3.82,6.2-6,6.67-7.87.24-8.82,2.87a5.73,5.73,0,0,1-3.58,3.34s-4.53.23-4.77,1.19a9.23,9.23,0,0,1-1.91,2.62h49.82" style="fill: none; stroke: rgb(38, 50, 56); stroke-linecap: round; stroke-linejoin: round; transform-origin: 309.781px 153.008px;" id="elj1o0svowdp" class="animable"></path></g><g id="freepik--plants-2--inject-293" class="animable" style="transform-origin: 245.927px 283.48px;"><g id="el1ok3708qmza"><g style="opacity: 0.1; transform-origin: 75.9744px 253.215px;" class="animable"><path d="M23.23,232.17c3.94.78,12.69-1.33,12.69-1.33s-3.14-5.35-3.38-5.66c-2.81-3.62-10.37-9-15.18-7.2a6.08,6.08,0,0,0-3.14,8.47C15.79,229.71,19.88,231.5,23.23,232.17Z" id="elwptcq2tqsyi" class="animable" style="transform-origin: 24.7232px 224.982px;"></path><path d="M31.82,257c3.84-.27,11.19-4.25,11.78-4.57a107.84,107.84,0,0,0,7.63,12.13c1.62,2.26,3.33,4.49,5.07,6.7-.95-.89-1.8-1.68-1.93-1.78-3.66-2.74-12.36-5.89-16.54-2.93a6.08,6.08,0,0,0-.79,9c2.38,2.72,6.79,3.37,10.2,3.13s9.8-3.52,11.46-4.4c.68.84,1.34,1.69,2,2.53,3.26,4,6.53,8,9.62,12.06,1.09,1.42,2.1,2.86,3.13,4.29-.84-.79-1.55-1.45-1.67-1.54-3.67-2.75-12.36-5.9-16.54-2.93a6.06,6.06,0,0,0-.79,9c2.38,2.73,6.79,3.37,10.2,3.13s9.18-3.2,11.16-4.24c1,1.5,2,3,2.92,4.5.6,1,1.24,2,1.78,3.07l1.66,3.13c1,2,2,4.12,2.91,6.12.64,1.39,1.23,2.72,1.82,4.07-1.07-1.43-3.21-4.18-3.42-4.39-3.2-3.26-11.32-7.69-15.91-5.4a6.07,6.07,0,0,0-2.14,8.77c1.94,3.06,6.2,4.36,9.61,4.64,3.75.31,11.33-2.37,12.27-2.71,1,2.23,1.9,4.4,2.74,6.47q.95,2.28,1.77,4.41l3.12-.68q-1-2.35-2.09-4.92c-1-2.26-2.07-4.66-3.22-7.11a64.31,64.31,0,0,0,6.15-4.72c3.17,2.22,10.45,4,11.39,4.27-.42,2.39-.84,4.71-1.28,6.9-.23,1.16-.46,2.25-.69,3.34l3.3-.72c.13-.68.25-1.35.37-2.06.44-2.43.85-5,1.25-7.71,1,0,9-.13,12.45-1.72,3.1-1.45,6.64-4.15,7.4-7.69a6.07,6.07,0,0,0-5.06-7.48c-5.09-.56-11.17,6.41-13,10.59-.11.25-1,3.06-1.54,4.84.15-1.1.32-2.16.46-3.29.31-2.23.55-4.46.82-6.87.09-1.16.18-2.34.27-3.53s.09-2.43.14-3.66c0-2.86,0-5.75-.18-8.66,2,.26,8.91,1.1,12.2.14s7.2-3.1,8.48-6.48a6.06,6.06,0,0,0-3.86-8.16c-5-1.33-12,4.64-14.5,8.49-.15.24-1.62,3.2-2.4,4.84-.1-1.75-.2-3.49-.36-5.26-.47-5.1-1.1-10.25-1.7-15.39-.19-1.58-.36-3.15-.53-4.72.69.1,8.94,1.28,12.63.2,3.28-1,7.19-3.1,8.48-6.48a6.07,6.07,0,0,0-3.87-8.16c-5-1.33-12,4.65-14.49,8.49-.19.29-2.3,4.56-2.78,5.67-.38-3.47-.73-6.92-.93-10.34a106.82,106.82,0,0,1,0-13.86c.32.05,8.92,1.32,12.7.21,3.28-1,7.2-3.09,8.48-6.48a6.07,6.07,0,0,0-3.86-8.16c-5-1.32-12,4.65-14.5,8.5-.19.3-2.46,4.88-2.81,5.75,0-.27,0-.55,0-.82a78,78,0,0,1,2.51-13.66c.65-2.48,1.42-4.81,2.21-7.06,1.58.4,8.81,2.15,12.32,1.53s7.49-2.29,9.14-5.51a6.07,6.07,0,0,0-2.95-8.53c-4.78-1.87-12.45,3.3-15.34,6.85-.15.19-1.53,2.33-2.52,3.9.38-1,.74-2.06,1.12-3,1.41-3.61,2.92-6.83,4.28-9.68.79-1.61,1.53-3,2.24-4.39,1.75-.41,8.8-2.17,11.58-4.3s5.59-5.48,5.57-9.1a6.07,6.07,0,0,0-6.55-6.22c-5.1.55-9.53,8.66-10.45,13.15-.08.38-.64,6.59-.55,6.57l.1,0c-.71,1.28-1.45,2.65-2.24,4.17-1.42,2.82-3,6-4.5,9.61A107.26,107.26,0,0,0,110,222.43a78.69,78.69,0,0,0-2.84,13.78,1,1,0,0,0,0,.17c-.3-1.47-1.26-5.56-1.37-5.87-1.54-4.31-7.05-11.73-12.18-11.57A6.07,6.07,0,0,0,88,226c.48,3.58,3.8,6.55,6.78,8.24,3.36,1.89,11.69,2.62,12.35,2.68a108,108,0,0,0-.33,14.33c.11,2.78.3,5.58.53,8.39-.29-1.27-.57-2.4-.62-2.55-1.54-4.31-7.06-11.73-12.18-11.57a6.06,6.06,0,0,0-5.62,7.06c.48,3.59,3.8,6.56,6.78,8.24s10.11,2.48,12,2.66c.1,1.07.18,2.15.29,3.22.49,5.16,1,10.3,1.36,15.37.13,1.78.18,3.54.25,5.3-.27-1.12-.5-2.06-.55-2.2-1.54-4.32-7-11.74-12.18-11.58a6.07,6.07,0,0,0-5.62,7.07c.48,3.59,3.81,6.56,6.78,8.24s9.42,2.4,11.65,2.62c0,1.8,0,3.61,0,5.36-.08,1.2-.07,2.35-.21,3.55s-.23,2.36-.34,3.52c-.31,2.24-.6,4.54-1,6.71-.23,1.51-.48,2.95-.73,4.4-.1-1.78-.38-5.26-.43-5.54A23.58,23.58,0,0,0,101.39,299a6.54,6.54,0,0,0-.37-1.29,6.06,6.06,0,0,0-8.34-3.45c-4.56,2.34-5.78,11.51-5,16,0,.26.85,3.1,1.38,4.88-.47-1-.92-2-1.42-3-1-2-2-4-3.11-6.18l-1.72-3.09c-.56-1-1.27-2.08-1.91-3.13-1.53-2.41-3.2-4.78-4.93-7.12,1.78-.86,8-4,10.26-6.62s4.29-6.55,3.5-10.08A6.08,6.08,0,0,0,82,271.27c-4.86,1.63-7.45,10.51-7.4,15.08,0,.29.41,3.57.66,5.37-1-1.4-2.09-2.81-3.2-4.2-3.2-4-6.57-7.94-9.91-11.89-1-1.21-2-2.43-3-3.64.63-.3,8.16-3.87,10.64-6.81,2.21-2.61,4.29-6.55,3.5-10.08a6.06,6.06,0,0,0-7.73-4.67c-4.86,1.62-7.45,10.5-7.4,15.08,0,.34.6,5.06.8,6.25-2.22-2.67-4.42-5.36-6.47-8.1a107.76,107.76,0,0,1-7.64-11.56c.29-.14,8.16-3.83,10.7-6.84,2.21-2.61,4.3-6.55,3.5-10.08a6.06,6.06,0,0,0-7.72-4.67c-4.87,1.62-7.46,10.5-7.41,15.08,0,.36.65,5.44.83,6.35-.13-.24-.3-.46-.43-.7a79.27,79.27,0,0,1-5.44-12.78c-.82-2.42-1.47-4.79-2-7.11,1.54-.53,8.53-3.06,11.12-5.52s5-6,4.58-9.63a6.06,6.06,0,0,0-7.16-5.5c-5,1.08-8.56,9.62-9,14.18,0,.25,0,2.79.06,4.65-.25-1.05-.52-2.13-.74-3.14-.82-3.79-1.34-7.31-1.77-10.43-.23-1.78-.4-3.39-.55-4.9,1.23-1.31,6.13-6.67,7.28-10s1.64-7.66-.37-10.66a6.08,6.08,0,0,0-8.9-1.58c-3.94,3.27-3.16,12.49-1.46,16.74.14.37,3.1,5.85,3.16,5.78l.08-.08c.11,1.46.25,3,.43,4.72.37,3.13.81,6.67,1.55,10.5a108.33,108.33,0,0,0,3,12.22,78.81,78.81,0,0,0,5.23,13.05s.06.1.08.15c-1-1.07-4.11-3.95-4.37-4.14-3.67-2.75-12.36-5.9-16.54-2.93a6.06,6.06,0,0,0-.79,9C24,256.57,28.41,257.21,31.82,257Z" id="eln1peuse0fr" class="animable" style="transform-origin: 79.2907px 253.215px;"></path><path d="M112.58,214.71c.09,0,.33-6.19.3-6.58-.35-4.57-3.71-13.18-8.69-14.38a6.07,6.07,0,0,0-7.29,5.33c-.48,3.59,1.94,7.33,4.36,9.74C104.11,211.65,112.58,214.71,112.58,214.71Z" id="elh26u0n3tr" class="animable" style="transform-origin: 104.861px 204.165px;"></path></g></g><g id="elyia7pvje68"><g style="opacity: 0.1; transform-origin: 424.419px 323.827px;" class="animable"><path d="M469.06,318.29c-3.38.12-10.37-2.8-10.37-2.8s3.32-4,3.57-4.25c2.81-2.63,9.8-6.05,13.57-4a5.12,5.12,0,0,1,1.48,7.46C475.56,317.24,471.93,318.18,469.06,318.29Z" id="eljkkaopo5r2a" class="animable" style="transform-origin: 468.509px 312.454px;"></path><path d="M458.61,337.75c-3.16-.73-8.73-5-9.18-5.37a89.32,89.32,0,0,1-8,9.06c-1.65,1.67-3.36,3.29-5.1,4.9.9-.62,1.71-1.16,1.84-1.22,3.41-1.8,11.05-3.25,14.13-.23a5.11,5.11,0,0,1-.54,7.58c-2.34,1.95-6.09,1.89-8.89,1.24s-7.68-4.23-8.94-5.19c-.68.61-1.34,1.23-2,1.83-3.24,2.92-6.49,5.81-9.6,8.75-1.09,1-2.13,2.09-3.17,3.14.8-.54,1.48-1,1.59-1.06,3.41-1.79,11.06-3.24,14.14-.22a5.1,5.1,0,0,1-.54,7.57c-2.34,2-6.09,1.9-8.9,1.25s-7.2-3.89-8.71-5c-1,1.11-2.07,2.23-3,3.35-.64.78-1.3,1.49-1.89,2.32l-1.8,2.38c-1.08,1.55-2.21,3.15-3.23,4.69-.72,1.07-1.38,2.1-2.06,3.14,1.08-1.05,3.23-3,3.43-3.19,3.1-2.29,10.43-4.88,13.94-2.37a5.12,5.12,0,0,1,.61,7.58c-2,2.28-5.74,2.8-8.61,2.57-3.15-.24-9.09-3.48-9.83-3.89-1.11,1.72-2.17,3.4-3.14,5-.72,1.18-1.41,2.33-2.06,3.43l-2.5-1c.75-1.22,1.55-2.48,2.39-3.81,1.12-1.75,2.35-3.59,3.63-5.48a53.72,53.72,0,0,1-4.48-4.74c-2.93,1.42-9.22,2-10,2,0,2,.07,4,.15,5.9,0,1,.08,1.94.12,2.87l-2.64-1c0-.59,0-1.16,0-1.77,0-2.08,0-4.3,0-6.57-.82-.14-7.5-1.31-10.12-3.09-2.38-1.62-5-4.34-5.12-7.38a5.1,5.1,0,0,1,5.2-5.54c4.3.22,8.42,6.82,9.42,10.54.06.22.43,2.67.64,4.23,0-.94,0-1.84.05-2.8,0-1.89.14-3.78.23-5.81.09-1,.17-2,.25-3s.25-2,.38-3.06c.33-2.38.79-4.77,1.3-7.17-1.66,0-7.55-.27-10.16-1.51s-5.56-3.53-6.18-6.52a5.11,5.11,0,0,1,4.3-6.26c4.29-.44,9.36,5.46,10.91,9,.1.22.93,2.88,1.35,4.34.32-1.44.63-2.88,1-4.32,1.07-4.18,2.28-8.37,3.47-12.56.37-1.29.71-2.57,1.07-3.85-.59,0-7.6-.13-10.52-1.52-2.6-1.24-5.57-3.54-6.18-6.52a5.09,5.09,0,0,1,4.3-6.26c4.29-.44,9.36,5.46,10.91,9,.11.26,1.3,4.09,1.55,5.07.78-2.82,1.53-5.65,2.15-8.46a89.36,89.36,0,0,0,1.85-11.51c-.28,0-7.59-.1-10.58-1.53-2.6-1.23-5.57-3.53-6.19-6.51a5.11,5.11,0,0,1,4.3-6.27c4.3-.44,9.36,5.47,10.91,9,.13.28,1.4,4.4,1.58,5.16,0-.23.06-.46.08-.68a65.41,65.41,0,0,0-.27-11.69c-.21-2.14-.53-4.18-.89-6.16-1.36.12-7.6.61-10.44-.37s-5.92-2.9-6.86-5.8a5.11,5.11,0,0,1,3.59-6.7c4.21-.91,9.9,4.4,11.83,7.74.1.18,1,2.14,1.57,3.58-.17-.89-.34-1.81-.52-2.66-.69-3.19-1.52-6.07-2.27-8.61-.44-1.44-.87-2.74-1.28-4-1.4-.58-7-3-9-5.12s-3.92-5.3-3.42-8.3a5.1,5.1,0,0,1,6.27-4.3c4.16,1.14,6.76,8.47,6.94,12.32,0,.34-.35,5.56-.42,5.53l-.09,0c.42,1.16.86,2.4,1.31,3.77.81,2.53,1.7,5.4,2.46,8.58a91.81,91.81,0,0,1,2,10.4,67.23,67.23,0,0,1,.53,11.83.59.59,0,0,0,0,.14c.44-1.19,1.79-4.46,1.92-4.7,1.85-3.37,7.42-8.81,11.66-8a5.11,5.11,0,0,1,3.73,6.62c-.88,2.92-4,5-6.73,6-3.05,1.13-10.07.62-10.62.58A91.37,91.37,0,0,1,397.1,323c-.46,2.3-1,4.6-1.56,6.9.41-1,.79-1.91.86-2,1.86-3.38,7.43-8.81,11.66-8a5.1,5.1,0,0,1,3.73,6.62c-.88,2.91-4,4.94-6.73,5.94s-8.73.71-10.32.6c-.22.88-.44,1.77-.67,2.64-1.1,4.22-2.21,8.43-3.18,12.59-.34,1.47-.63,2.92-.91,4.38.37-.9.68-1.65.74-1.76,1.86-3.38,7.43-8.81,11.67-8a5.11,5.11,0,0,1,3.73,6.62c-.88,2.91-4,4.94-6.74,5.94s-8.14.73-10,.62c-.25,1.5-.5,3-.68,4.47-.09,1-.25,2-.3,3l-.18,3c-.05,1.9-.11,3.85-.11,5.7,0,1.29,0,2.52,0,3.75.32-1.46,1-4.31,1.1-4.54a19.81,19.81,0,0,1,6-8,5.67,5.67,0,0,1,.48-1,5.11,5.11,0,0,1,7.39-1.75c3.48,2.56,3.27,10.34,2,14-.07.21-1.11,2.47-1.79,3.88.53-.77,1-1.52,1.58-2.31,1.08-1.55,2.2-3.08,3.41-4.72l1.84-2.34c.6-.79,1.33-1.56,2-2.35,1.6-1.79,3.3-3.54,5.05-5.26-1.37-.95-6.15-4.39-7.64-6.86s-2.7-6-1.56-8.85a5.1,5.1,0,0,1,7-2.85c3.82,2,4.79,9.72,4.14,13.52,0,.23-.82,2.91-1.27,4.36,1.06-1,2.11-2.05,3.22-3.05,3.2-2.9,6.52-5.73,9.82-8.56l3-2.63c-.49-.33-6.27-4.3-7.94-7.07-1.49-2.46-2.69-6-1.56-8.84a5.11,5.11,0,0,1,7-2.86c3.82,2,4.79,9.72,4.14,13.52,0,.29-1.17,4.13-1.5,5.09,2.21-1.92,4.39-3.87,6.46-5.87A88.85,88.85,0,0,0,448.5,332c-.23-.16-6.27-4.27-8-7.11-1.49-2.47-2.7-6-1.57-8.85a5.12,5.12,0,0,1,7.05-2.85c3.82,2,4.79,9.72,4.14,13.52-.05.3-1.26,4.43-1.53,5.16.14-.17.3-.34.44-.52a66,66,0,0,0,6.23-9.89c1-1.91,1.86-3.79,2.65-5.63-1.21-.65-6.68-3.69-8.5-6.07s-3.34-5.69-2.53-8.62a5.1,5.1,0,0,1,6.69-3.61c4,1.57,5.83,9.13,5.6,13,0,.21-.38,2.32-.66,3.85.34-.83.71-1.69,1-2.5,1.18-3,2.08-5.9,2.86-8.44.43-1.44.79-2.76,1.11-4-.85-1.26-4.21-6.36-4.72-9.26s-.34-6.59,1.73-8.81a5.11,5.11,0,0,1,7.6-.13c2.85,3.25,1,10.8-1,14.1-.17.29-3.36,4.45-3.4,4.39l-.06-.08c-.28,1.2-.61,2.47-1,3.86C462,306,461.12,308.92,460,312a90.38,90.38,0,0,1-4.1,9.76,66,66,0,0,1-6.09,10.15.87.87,0,0,1-.09.11c1-.74,3.95-2.73,4.19-2.86,3.41-1.79,11.06-3.25,14.14-.23a5.11,5.11,0,0,1-.54,7.58C465.17,338.46,461.41,338.41,458.61,337.75Z" id="elpczjhwhx71" class="animable" style="transform-origin: 420.032px 323.827px;"></path><path d="M397.14,291.87c-.08,0,.55-5.19.63-5.52.9-3.74,4.84-10.45,9.14-10.78a5.1,5.1,0,0,1,5.34,5.4c-.07,3-2.58,5.83-4.92,7.51C404.58,290.45,397.14,291.86,397.14,291.87Z" id="elkhibdguh4wm" class="animable" style="transform-origin: 404.696px 283.717px;"></path></g></g></g><g id="freepik--character-2--inject-293" class="animable animator-active" style="transform-origin: 229.51px 92.805px;"><line x1="208.65" y1="33.36" x2="221.15" y2="152.15" style="fill: none; stroke: rgb(38, 50, 56); stroke-linecap: round; stroke-linejoin: round; transform-origin: 214.9px 92.755px;" id="ell1juo77p11" class="animable"></line><polygon points="246.14 58.6 236.82 60.74 228.29 77.61 214.78 73.75 214.4 77.43 231.2 84.4 237.21 76.06 237.21 90.61 255.25 91.39 258.94 74.9 265.53 80.72 265.53 96.04 269.41 96.04 271.74 76.84 261.46 60.16 246.14 58.6" style="fill: rgb(255, 255, 255); stroke: rgb(38, 50, 56); stroke-linecap: round; stroke-linejoin: round; transform-origin: 243.07px 77.32px;" id="elcenqythxg0u" class="animable"></polygon><line x1="237.21" y1="76.06" x2="237.07" y2="67.85" style="fill: none; stroke: rgb(38, 50, 56); stroke-linecap: round; stroke-linejoin: round; transform-origin: 237.14px 71.955px;" id="elnfp2c6rdjr9" class="animable"></line><path d="M246,64l2.53,4.75s7,2.22,8.24,2.53,5.07-.95,8.23-1.58,13.31,4.43,13.31,4.43l8.87.32-4.75-5.7-17.11-2.54-8.87,2.86-6-1.59L251.73,65l-2.85-4.44Z" style="fill: rgb(190, 212, 234); stroke: rgb(38, 50, 56); stroke-linecap: round; stroke-linejoin: round; transform-origin: 266.59px 67.505px;" id="elsns4tqgpe2" class="animable"></path><path d="M246.91,57.24a2,2,0,0,0-2.33,1.56c-.38,1.94-.77,6.79-.77,6.79l4.65-1.36,5.44,2.33s1.74-5.05.77-6.79S249.24,55.69,246.91,57.24Z" style="fill: rgb(255, 255, 255); stroke: rgb(38, 50, 56); stroke-linecap: round; stroke-linejoin: round; transform-origin: 249.387px 61.6466px;" id="el0m1ewbb7u4pg" class="animable"></path><path d="M245.94,54.53s.58,5.43.78,7.37,1.36,4.85,2.13,4.27,3.49-6,3.49-6l1.36-3.68Z" style="fill: rgb(255, 255, 255); stroke: rgb(38, 50, 56); stroke-linecap: round; stroke-linejoin: round; transform-origin: 249.82px 60.3875px;" id="elgj3ptou2n9" class="animable"></path><path d="M246,46.6s-1.7-.15-1.7,2.63,1.23,2.93,1.23,2.93Z" style="fill: rgb(255, 255, 255); stroke: rgb(38, 50, 56); stroke-linecap: round; stroke-linejoin: round; transform-origin: 245.15px 49.3793px;" id="elagp4vks2h1" class="animable"></path><path d="M257.37,48.92a1.51,1.51,0,0,1,1.39,1.85c-.31,1.7-3.24,4-3.24,4Z" style="fill: rgb(255, 255, 255); stroke: rgb(38, 50, 56); stroke-linecap: round; stroke-linejoin: round; transform-origin: 257.16px 51.845px;" id="elvaf5apag2tp" class="animable"></path><path d="M251.76,41s-3.1-.78-4.85,2.91-1.36,8.15-1,10.67,2.72,3.68,5.05,3.68,5.81-4.84,6.59-8.53S257.77,41,251.76,41Z" style="fill: rgb(255, 255, 255); stroke: rgb(38, 50, 56); stroke-linecap: round; stroke-linejoin: round; transform-origin: 251.714px 49.5956px;" id="el299dhfv717z" class="animable"></path><polygon points="211.03 71.6 211.8 77.42 215.29 77.81 214.71 71.21 211.03 71.6" style="fill: rgb(255, 255, 255); stroke: rgb(38, 50, 56); stroke-linecap: round; stroke-linejoin: round; transform-origin: 213.16px 74.51px;" id="elf1jgihoat5h" class="animable"></polygon><polygon points="214.78 71.51 216.19 71.32 216.47 74.42 215.06 74.61 214.78 71.51" style="fill: rgb(255, 255, 255); stroke: rgb(38, 50, 56); stroke-linecap: round; stroke-linejoin: round; transform-origin: 215.625px 72.965px;" id="elsf2ulo9xjuh" class="animable"></polygon><polygon points="265.53 96.04 263.41 99.36 263.96 102.69 265.81 102.51 268.96 101.4 269.41 96.04 265.53 96.04" style="fill: rgb(255, 255, 255); stroke: rgb(38, 50, 56); stroke-linecap: round; stroke-linejoin: round; transform-origin: 266.41px 99.365px;" id="el7mjs8g7nc17" class="animable"></polygon><polygon points="237.21 90.61 235.84 96.59 220.66 116.57 230.84 145.26 233.43 144.7 231.21 117.31 243.61 104.17 245.09 105.1 245.13 119.76 259.34 143.78 262.3 143.03 255.64 119.9 256.01 95.29 255.25 91.39 237.21 90.61" style="fill: rgb(38, 50, 56); stroke: rgb(38, 50, 56); stroke-linecap: round; stroke-linejoin: round; transform-origin: 241.48px 117.935px;" id="elwi9z8y3adr" class="animable"></polygon><path d="M230.84,145.26l-2.22,3.14s-3.52,1.67-4.07,2.59,3,.74,3,.74l4.07-.37,4.26-2.77-2.41-3.89Z" style="fill: rgb(255, 255, 255); stroke: rgb(38, 50, 56); stroke-linecap: round; stroke-linejoin: round; transform-origin: 230.186px 148.222px;" id="elod4h7qbx6w9" class="animable"></path><path d="M209.18,37.59s-1.86,4.24-9.54,7.15-18.8,4.5-21.71,10.59-2.91,5.57-3.44,9a9.29,9.29,0,0,1-2.65,5.29s2.65.27,4-1.58,1.86-7.15,4-7.95S185.87,58,185.87,58s-3.7,3.18-4,4.77-.53,5.3-1.06,7.68A6.32,6.32,0,0,1,179,73.87s3.44,0,4.5-2.38,0-5.56,3.44-7.95,7.15-1.32,13-1.06,11.39-3.17,11.39-3.17Z" style="fill: rgb(190, 212, 234); stroke: rgb(38, 50, 56); stroke-linecap: round; stroke-linejoin: round; transform-origin: 191.585px 55.73px;" id="elf5ol9lo81q" class="animable"></path><polygon points="259.34 143.78 256.79 152.25 263.12 152 262.3 143.03 259.34 143.78" style="fill: rgb(255, 255, 255); stroke: rgb(38, 50, 56); stroke-linecap: round; stroke-linejoin: round; transform-origin: 259.955px 147.64px;" id="el70chgel6nzx" class="animable"></polygon><path d="M249.64,48.43c-.11.5-.46.85-.8.78s-.52-.54-.41-1,.46-.85.8-.78S249.74,47.93,249.64,48.43Z" style="fill: rgb(38, 50, 56); transform-origin: 249.033px 48.3204px;" id="eliveh2my6vv" class="animable"></path><path d="M254.27,49.51c-.11.5-.46.85-.8.78s-.52-.54-.41-1,.46-.85.8-.78S254.37,49,254.27,49.51Z" style="fill: rgb(38, 50, 56); transform-origin: 253.663px 49.4004px;" id="eld05b36muz5l" class="animable"></path><polyline points="251.19 49.07 249.96 52.78 251.97 52.78" style="fill: none; stroke: rgb(38, 50, 56); stroke-linecap: round; stroke-linejoin: round; transform-origin: 250.965px 50.925px;" id="elt6r7xqfumi" class="animable"></polyline><path d="M248.42,53.86s1.08,1.85,3.86.77" style="fill: none; stroke: rgb(38, 50, 56); stroke-linecap: round; stroke-linejoin: round; transform-origin: 250.35px 54.4142px;" id="el1ti12gzaj3s" class="animable"></path><path d="M248.26,45.83a2,2,0,0,1,2.47.46" style="fill: none; stroke: rgb(38, 50, 56); stroke-linecap: round; stroke-linejoin: round; transform-origin: 249.495px 45.94px;" id="el91fnllhdan" class="animable"></path><path d="M253.05,46.91A2.19,2.19,0,0,1,256.13,48" style="fill: none; stroke: rgb(38, 50, 56); stroke-linecap: round; stroke-linejoin: round; transform-origin: 254.59px 47.32px;" id="elboz269rufc8" class="animable"></path><path d="M245.33,45.37,256.44,44s-.46,1.85.16,2.31.77,2.63.77,2.63l-.46,2.47,2.47-4.32s.77-3.4.15-4.48a2.71,2.71,0,0,0-1.85-1.24,6.32,6.32,0,0,0-6.18-2.77c-4.32.46-6.17,2.62-6.17,4.32Z" style="fill: rgb(38, 50, 56); stroke: rgb(38, 50, 56); stroke-linecap: round; stroke-linejoin: round; transform-origin: 252.551px 44.9723px;" id="elnp7f3oon7em" class="animable"></path></g><g id="freepik--Mountain--inject-293" class="animable" style="transform-origin: 245.385px 306.73px;"><polygon points="237.13 465.2 256.73 352.73 182.75 284.84 209.6 193.36 180.86 194 168.72 204.86 143.35 204.24 139.92 216.61 132.96 215.74 130.56 220.08 118.69 243.78 112.52 267.45 89.52 296.2 87 364.04 49.92 417.56 38.26 465.2 237.13 465.2" style="fill: gray; stroke: rgb(38, 50, 56); stroke-linecap: round; stroke-linejoin: round; transform-origin: 147.495px 329.28px;" id="elnu76x39esa9" class="animable"></polygon><path d="M404.06,465.2l-24.55-53.83,40,26.65V395.37L396,367.52l3.48-31.33L363.78,268.3,362,244.8l-12.18-11.32L287.3,238l-4.46-21.95-40-22.63-24,58.11-22.11,9.78,15.58,21.36-2.52,16.93L215,325.74l-87,19.15s-.87,41.78-.87,45.26-17.41,23.5-17.41,23.5l-.81,51.55Z" style="fill: rgb(171, 171, 171); stroke: rgb(38, 50, 56); stroke-linecap: round; stroke-linejoin: round; transform-origin: 264.21px 329.31px;" id="elfd3rruin7ee" class="animable"></path><polygon points="452.51 465.2 442.12 460.65 429.06 432.8 413.39 421.49 406.43 404.95 399.47 391.89 362.27 373.72 368.04 465.2 452.51 465.2" style="fill: rgb(204, 204, 204); stroke: rgb(38, 50, 56); stroke-linecap: round; stroke-linejoin: round; transform-origin: 407.39px 419.46px;" id="el57diguvv8y4" class="animable"></polygon><polygon points="63.15 465.09 109.66 465.09 110.5 438.02 106.15 422.36 106.15 380.58 95.71 378.84 87 388.41 73.08 396.25 42.91 465.2 63.15 465.2 63.15 465.09" style="fill: rgb(204, 204, 204); stroke: rgb(38, 50, 56); stroke-linecap: round; stroke-linejoin: round; transform-origin: 76.705px 422.02px;" id="elbnrcsnal6mt" class="animable"></polygon><line x1="79.24" y1="419.77" x2="80.26" y2="415.43" style="fill: none; stroke: rgb(38, 50, 56); stroke-miterlimit: 10; transform-origin: 79.75px 417.6px;" id="elrld8koafwup" class="animable"></line><polyline points="63.15 465.2 69.35 440.71 75.2 436.99 78.62 422.41" style="fill: none; stroke: rgb(38, 50, 56); stroke-miterlimit: 10; transform-origin: 70.885px 443.805px;" id="elo1ox96xsukd" class="animable"></polyline><line x1="53.11" y1="465.46" x2="62.96" y2="437.52" style="fill: none; stroke: rgb(38, 50, 56); stroke-miterlimit: 10; transform-origin: 58.035px 451.49px;" id="el1yerzxongsv" class="animable"></line><line x1="95.85" y1="390.4" x2="94.89" y2="394.94" style="fill: none; stroke: rgb(38, 50, 56); stroke-miterlimit: 10; transform-origin: 95.37px 392.67px;" id="el9186z3aqk85" class="animable"></line><line x1="98.08" y1="379.78" x2="96.26" y2="388.45" style="fill: none; stroke: rgb(38, 50, 56); stroke-miterlimit: 10; transform-origin: 97.17px 384.115px;" id="elu4zi9yrni2" class="animable"></line><polygon points="109.66 465.09 110.5 438.02 106.15 422.36 106.15 380.58 97.45 436.28 89.61 438.89 87 454.56 85.38 465.09 109.66 465.09" style="fill: rgb(255, 255, 255); stroke: rgb(38, 50, 56); stroke-linecap: round; stroke-linejoin: round; transform-origin: 97.94px 422.835px;" id="elofvqe71vb7i" class="animable"></polygon><path d="M258.61,434.22A56.94,56.94,0,0,0,273,430.3a23.43,23.43,0,0,0,9.4-7c.29-.39.56-.8.82-1.21l-6.87-31L262.8,379.27l-2.26-10.14-13-10.14-4.5,15.78-7.33,10.14-.56,37.19,7,13.38A121.56,121.56,0,0,0,258.61,434.22Z" style="fill: rgb(255, 255, 255); stroke: rgb(38, 50, 56); stroke-linecap: round; stroke-linejoin: round; transform-origin: 259.185px 397.235px;" id="el0ooszksdewbc" class="animable"></path><polyline points="258.61 434.22 257.23 422.64 261.3 411.67 261.3 405.17 260.48 395.01" style="fill: none; stroke: rgb(38, 50, 56); stroke-miterlimit: 10; transform-origin: 259.265px 414.615px;" id="el1x9tl47rxlo" class="animable"></polyline><polyline points="266.86 399.02 269.02 411.26 273.08 412.07 272.27 422.23 273.89 427.52" style="fill: none; stroke: rgb(38, 50, 56); stroke-miterlimit: 10; transform-origin: 270.375px 413.27px;" id="els811pkc217" class="animable"></polyline><line x1="265.36" y1="390.54" x2="266.08" y2="394.62" style="fill: none; stroke: rgb(38, 50, 56); stroke-miterlimit: 10; transform-origin: 265.72px 392.58px;" id="elkgaxxxbjkj" class="animable"></line><line x1="251.95" y1="364.53" x2="255.2" y2="397.85" style="fill: none; stroke: rgb(38, 50, 56); stroke-miterlimit: 10; transform-origin: 253.575px 381.19px;" id="elv23onz3usa" class="animable"></line><path d="M212.25,433.39a185,185,0,0,0,28.25,2.1c1.9,0,3.76-.05,5.59-.12l-.2-10.46-3.38-4.5V388.29l5.64-5.64L247.58,359l-6.76,12.4-9,7.88-5.64,16.34-9,10.71-2.26,11.27-10.7,9-4.27,4.55Q206,432.44,212.25,433.39Z" style="fill: rgb(204, 204, 204); stroke: rgb(38, 50, 56); stroke-linecap: round; stroke-linejoin: round; transform-origin: 224.05px 397.245px;" id="elxd1zqpuns2j" class="animable"></path><polygon points="375.1 465.2 422.35 465.11 361.17 428.45 346.38 392.76 334.19 391.02 323.75 377.1 318.52 382.32 322 412.78 308.95 434.54 308.95 448.47 302.86 464.13 332.3 465.2 375.1 465.2" style="fill: rgb(255, 255, 255); stroke: rgb(38, 50, 56); stroke-linecap: round; stroke-linejoin: round; transform-origin: 362.605px 421.15px;" id="el8z5cyvr4wfx" class="animable"></polygon><polygon points="351.4 465.14 349.17 452.69 352.68 445.34 351.72 430.97 354.6 433.85 374.08 465.14 351.4 465.14" style="fill: rgb(204, 204, 204); stroke: rgb(38, 50, 56); stroke-linecap: round; stroke-linejoin: round; transform-origin: 361.625px 448.055px;" id="el3b65nvzc2a3" class="animable"></polygon><polygon points="351.72 430.97 365.46 437.68 370.88 444.38 386.53 452.37 397.39 459.08 404.06 465.2 374.08 465.14 351.72 430.97" style="fill: rgb(255, 255, 255); stroke: rgb(38, 50, 56); stroke-linecap: round; stroke-linejoin: round; transform-origin: 377.89px 448.085px;" id="elawcteb6gl2v" class="animable"></polygon><polygon points="308.95 434.54 308.95 448.47 302.39 464.92 327.24 465.24 322 435.41 332.45 425.84 318.52 382.32 322 412.78 308.95 434.54" style="fill: rgb(204, 204, 204); stroke: rgb(38, 50, 56); stroke-linecap: round; stroke-linejoin: round; transform-origin: 317.42px 423.78px;" id="elctb4pjmlvr9" class="animable"></polygon><polyline points="334.19 391.02 343.38 410.45 347.44 410.86 350.69 420.61" style="fill: none; stroke: rgb(38, 50, 56); stroke-miterlimit: 10; transform-origin: 342.44px 405.815px;" id="el9qtra16x91p" class="animable"></polyline><line x1="340.36" y1="449.8" x2="341.76" y2="454.34" style="fill: none; stroke: rgb(38, 50, 56); stroke-miterlimit: 10; transform-origin: 341.06px 452.07px;" id="eld3yyjnwo" class="animable"></line><polyline points="334.85 414.51 337.69 425.49 342.57 433.61 336.88 438.49 339.34 446.48" style="fill: none; stroke: rgb(38, 50, 56); stroke-miterlimit: 10; transform-origin: 338.71px 430.495px;" id="elrzojbxgms0h" class="animable"></polyline><polygon points="218.74 191.25 198.34 213.56 197.64 172.66 217.95 148 218.74 191.25" style="fill: rgb(204, 204, 204); stroke: rgb(38, 50, 56); stroke-linecap: round; stroke-linejoin: round; transform-origin: 208.19px 180.78px;" id="elwrgmcbnb3c7" class="animable"></polygon><path d="M204.58,280.57l20.86-18.41a22,22,0,0,1,4.95-3.24,37.26,37.26,0,0,1,7-2.5,64.3,64.3,0,0,1,9.4-1.56,108.69,108.69,0,0,1,12-.44,194.19,194.19,0,0,1,28.9,2.55,191.89,191.89,0,0,1,23.51,5.43c6.94,2.07,13,4.29,18.23,6.34s9.55,3.93,13.05,5.31L315.41,291.6c-3.31-1.3-7.42-3.07-12.35-5s-10.68-4-17.25-6a179.14,179.14,0,0,0-22.24-5.09,183.08,183.08,0,0,0-27.36-2.36,102,102,0,0,0-11.38.44,60.79,60.79,0,0,0-8.89,1.49,34.78,34.78,0,0,0-6.67,2.38A20.92,20.92,0,0,0,204.58,280.57Z" style="fill: rgb(204, 204, 204); stroke: rgb(38, 50, 56); stroke-linecap: round; stroke-linejoin: round; transform-origin: 273.53px 273.001px;" id="elxlegyuljw1f" class="animable"></path><path d="M271,431.11l-23.54,9a31.3,31.3,0,0,0,5.88-2.92,19.66,19.66,0,0,0,4.38-3.81,14.9,14.9,0,0,0,2.72-4.75,16.57,16.57,0,0,0,.86-5.75,16.9,16.9,0,0,0-3-9.53A28.36,28.36,0,0,0,249,405.4a91.5,91.5,0,0,0-16.46-7c-6.8-2.29-15-4.55-24.65-6.9a246.72,246.72,0,0,1-38.48-12.36A132.39,132.39,0,0,1,138,360.88a79.28,79.28,0,0,1-21.27-25.4,74.56,74.56,0,0,1-8-33.83,88.89,88.89,0,0,1,1-14.26,80.34,80.34,0,0,1,3.2-13.36,76.61,76.61,0,0,1,5.37-12.35,77.53,77.53,0,0,1,7.49-11.23L142,230.12a80,80,0,0,0-13.58,24.94A84.13,84.13,0,0,0,125,269.19a93.44,93.44,0,0,0-1,15.1,79.22,79.22,0,0,0,8.55,35.85,84.3,84.3,0,0,0,22.54,26.94c9.48,7.63,20.75,14,33.28,19.33a261.42,261.42,0,0,0,40.72,13.14c10.25,2.5,18.88,4.91,26.07,7.34a96.2,96.2,0,0,1,17.41,7.49c4.48,2.61,7.69,5.37,9.81,8.41a17.84,17.84,0,0,1,3.21,10.09,17.27,17.27,0,0,1-.9,6.09,15.73,15.73,0,0,1-2.86,5,20.69,20.69,0,0,1-4.63,4A33,33,0,0,1,271,431.11Z" style="fill: rgb(204, 204, 204); stroke: rgb(38, 50, 56); stroke-linecap: round; stroke-linejoin: round; transform-origin: 197.162px 335.115px;" id="el02el4cgvrerg" class="animable"></path><path d="M155.09,347.08c9.48,7.63,20.75,14,33.28,19.33a261.42,261.42,0,0,0,40.72,13.14c10.25,2.5,18.88,4.91,26.07,7.34a96.2,96.2,0,0,1,17.41,7.49c4.48,2.61,7.69,5.37,9.81,8.41a17.84,17.84,0,0,1,3.21,10.09,16.23,16.23,0,0,1-3.22,10.44,23.43,23.43,0,0,1-9.4,7,56.94,56.94,0,0,1-14.36,3.92,123.3,123.3,0,0,1-18.11,1.27,185,185,0,0,1-28.25-2.1,223.6,223.6,0,0,1-26.61-5.71c-8.5-2.37-16.59-5.11-24.13-8s-14.54-6-20.85-9L127.88,465H357.57a85.75,85.75,0,0,0,16.51-27.25,88.29,88.29,0,0,0,5.38-33.43c-.34-12.17-2.19-23-5.82-32.71a73.46,73.46,0,0,0-16.5-25.92c-7.47-7.66-17-14.41-28.86-20.43s-26.14-11.35-43-16.16Q269,304.36,256.81,300a163.31,163.31,0,0,1-20.26-8.58c-5.4-2.83-9.45-5.64-12.15-8.52s-4.08-5.81-4.14-8.89a15.42,15.42,0,0,1,1.58-7.28,16.49,16.49,0,0,1,6-6.38,34.71,34.71,0,0,1,11.86-4.45,89.68,89.68,0,0,1,19.17-1.49,194.19,194.19,0,0,1,28.9,2.55,191.89,191.89,0,0,1,23.51,5.43c6.94,2.07,13,4.29,18.23,6.34s9.55,3.93,13.05,5.31l14.88-67c-4.68-2-9.71-4-15.22-5.9s-11.51-3.68-18.1-5.29-13.79-3-21.71-4.21-16.59-2.07-26.09-2.63l-.87-39.62L218,148l.79,43.25a151.1,151.1,0,0,0-40.5,11.51A101.72,101.72,0,0,0,148.36,223,81.44,81.44,0,0,0,130,250.62a87.43,87.43,0,0,0-6,33.67,79.22,79.22,0,0,0,8.55,35.85A84.3,84.3,0,0,0,155.09,347.08Z" style="fill: rgb(255, 255, 255); stroke: rgb(38, 50, 56); stroke-linecap: round; stroke-linejoin: round; transform-origin: 251.745px 306.5px;" id="el4mmhirjcob" class="animable"></path><polygon points="127.88 465 140.66 410.67 124.29 420.91 113.87 465 127.88 465" style="fill: rgb(204, 204, 204); stroke: rgb(38, 50, 56); stroke-linecap: round; stroke-linejoin: round; transform-origin: 127.265px 437.835px;" id="elykcs9xmhuo" class="animable"></polygon></g><g id="freepik--plants-1--inject-293" class="animable" style="transform-origin: 246.391px 404.219px;"><path d="M404.15,451.89a4,4,0,0,0-2.91.57l4.48,2.69A2.5,2.5,0,0,0,404.15,451.89Z" style="fill: rgb(38, 50, 56); transform-origin: 403.56px 453.485px;" id="elwwdb2o9xpis" class="animable"></path><path d="M405.41,416.49s.6-2.52.62-2.68c.2-1.89-.53-5.67-2.48-6.54a2.52,2.52,0,0,0-3.38,1.64c-.47,1.43.24,3.14,1.05,4.31C402.18,414.6,405.41,416.48,405.41,416.49Z" style="fill: rgb(38, 50, 56); transform-origin: 403.041px 411.786px;" id="el3c8wdm1zfzf" class="animable"></path><path d="M435.06,431.87c1.22-1.47,2.69-5,1.54-6.82a2.51,2.51,0,0,0-3.72-.5,5.24,5.24,0,0,0-1.5,4.18c0,1.67,1.69,5,1.7,5S435,432,435.06,431.87Z" style="fill: rgb(38, 50, 56); transform-origin: 434.187px 428.836px;" id="elxjbv00oa43" class="animable"></path><path d="M393.86,445.77a16,16,0,0,0,4.58,2c-.13.74-.26,1.48-.42,2.19,0,.18-.09.36-.13.55l.94.56c.06-.29.12-.59.19-.88.23-1.17.42-2.36.57-3.56a16.41,16.41,0,0,0,5,1,5.28,5.28,0,0,0,4-2,2.54,2.54,0,0,0-1-3.64c-1.93-.91-5.27,1-6.58,2.39-.08.09-.9,1.19-1.34,1.81.09-.73.18-1.45.25-2.19.19-2.12.32-4.28.45-6.43,0-.65.09-1.31.14-2,.28.1,3.56,1.2,5.16,1,1.41-.15,3.18-.73,4-2a2.53,2.53,0,0,0-1-3.63c-1.93-.91-5.27,1-6.58,2.39-.09.11-1.28,1.7-1.56,2.11.1-1.44.22-2.88.39-4.3a46.22,46.22,0,0,1,1-5.67c.13,0,3.56,1.21,5.19,1,1.42-.15,3.18-.73,4-2a2.53,2.53,0,0,0-1-3.63c-1.93-.92-5.27,1-6.57,2.39-.11.11-1.38,1.82-1.59,2.14,0-.11.05-.22.08-.33a32.86,32.86,0,0,1,2.05-5.4c.45-1,.94-1.87,1.43-2.73.62.28,3.45,1.54,4.93,1.55s3.24-.37,4.16-1.57a2.53,2.53,0,0,0-.57-3.72c-1.81-1.12-5.34.42-6.79,1.66-.08.07-.81.84-1.33,1.41.23-.39.46-.79.69-1.16.85-1.37,1.71-2.57,2.48-3.64.44-.6.85-1.13,1.24-1.63a16.76,16.76,0,0,0,5.07-.89c1.26-.65,2.7-1.83,3-3.31a2.53,2.53,0,0,0-2.21-3c-2.13-.15-4.55,2.84-5.27,4.6-.06.16-.76,2.65-.72,2.65h.05c-.39.47-.8,1-1.23,1.54-.8,1.05-1.69,2.24-2.57,3.6a47,47,0,0,0-2.63,4.52,32.75,32.75,0,0,0-2.2,5.43s0,.05,0,.07c0-.63-.09-2.37-.11-2.51-.31-1.88-2-5.33-4.12-5.65a2.54,2.54,0,0,0-2.84,2.47c-.07,1.51,1.07,3,2.16,3.89,1.24,1,4.59,2,4.86,2a45.41,45.41,0,0,0-1.21,5.84c-.17,1.15-.3,2.31-.41,3.48,0-.54-.06-1-.07-1.09-.31-1.88-2-5.34-4.12-5.65a2.52,2.52,0,0,0-2.83,2.47c-.07,1.5,1.07,3,2.16,3.88a16.8,16.8,0,0,0,4.71,2c0,.44-.09.89-.12,1.34-.19,2.15-.36,4.29-.6,6.39-.08.74-.19,1.47-.3,2.19,0-.48,0-.88,0-.94-.31-1.88-2-5.33-4.12-5.65a2.52,2.52,0,0,0-2.83,2.47C391.63,443.39,392.77,444.86,393.86,445.77Z" style="fill: rgb(38, 50, 56); transform-origin: 405.118px 426.837px;" id="elgyxtxfrf6s" class="animable"></path><path d="M449.71,428.05c-1.69-1.31-5.36-.15-6.93.93-.14.09-2.1,1.79-2.06,1.81l0,0c-.58.17-1.2.37-1.88.6-1.24.44-2.64.94-4.12,1.59a42.3,42.3,0,0,0-4.69,2.32,33,33,0,0,0-4.83,3.31l-.05.05c.33-.53,1.23-2,1.28-2.15.78-1.74,1.27-5.56-.32-7a2.52,2.52,0,0,0-3.72.5c-.89,1.21-.75,3.06-.35,4.43.47,1.54,2.75,4.16,2.94,4.37a41.88,41.88,0,0,0-4.23,4.2c-.78.87-1.53,1.76-2.27,2.67.28-.46.52-.88.55-.94.78-1.74,1.27-5.56-.32-7a2.52,2.52,0,0,0-3.72.5c-.89,1.21-.75,3.07-.34,4.43a16.65,16.65,0,0,0,2.83,4.25l-.84,1c-1.34,1.7-2.67,3.39-4,5-.47.57-1,1.12-1.45,1.66l.47-.82c.78-1.73,1.27-5.55-.32-7a2.52,2.52,0,0,0-3.72.5c-.89,1.21-.75,3.06-.34,4.43A15.84,15.84,0,0,0,410,456L409,457.08l.88.53c.61-.63,1.2-1.29,1.79-2a16.55,16.55,0,0,0,3.62,3.56,5.27,5.27,0,0,0,4.42.5,2.52,2.52,0,0,0,1.19-3.56c-1.11-1.83-5-2.07-6.8-1.63-.12,0-1.41.49-2.12.76.47-.56.95-1.11,1.41-1.69,1.33-1.66,2.63-3.39,3.93-5.11l1.2-1.56c.18.23,2.32,3,3.74,3.7a5.28,5.28,0,0,0,4.41.5,2.52,2.52,0,0,0,1.19-3.56c-1.1-1.83-4.94-2.08-6.8-1.64-.14,0-2,.71-2.46.9.88-1.15,1.77-2.28,2.7-3.37a42.73,42.73,0,0,1,4-4.16c.08.11,2.29,3,3.75,3.73,1.26.66,3.05,1.15,4.41.5a2.52,2.52,0,0,0,1.2-3.56c-1.11-1.83-4.95-2.07-6.8-1.64-.15,0-2.15.76-2.51.92l.25-.24a32.62,32.62,0,0,1,4.69-3.37c.91-.56,1.81-1,2.7-1.48.36.57,2,3.18,3.26,4s2.91,1.47,4.33,1a2.53,2.53,0,0,0,1.58-3.41c-.9-1.94-4.69-2.6-6.58-2.37-.11,0-1.14.26-1.89.45.41-.2.82-.41,1.21-.59,1.47-.68,2.85-1.21,4.08-1.67l1.94-.67a17,17,0,0,0,4.71,2.05,5.26,5.26,0,0,0,4.3-1.13A2.51,2.51,0,0,0,449.71,428.05Z" style="fill: rgb(38, 50, 56); transform-origin: 428.805px 443.705px;" id="ele9jgnatwb26" class="animable"></path><path d="M398.72,465.16l1.15.71.71-.52.27-.2Z" style="fill: rgb(38, 50, 56); transform-origin: 399.785px 465.51px;" id="elseeb8ecdrza" class="animable"></path><path d="M67.41,399a2.53,2.53,0,0,0-.59,3.71,4.36,4.36,0,0,0,2.8,1.48l2.15-4.91C70.26,398.6,68.52,398.28,67.41,399Z" style="fill: rgb(38, 50, 56); transform-origin: 69.0145px 401.391px;" id="elnrk6ef4zbe8" class="animable"></path><path d="M77.36,392.55A3.66,3.66,0,0,0,76,394.6l3.77-2.11A2.4,2.4,0,0,0,77.36,392.55Z" style="fill: rgb(38, 50, 56); transform-origin: 77.885px 393.397px;" id="elnt5ga1rqh1r" class="animable"></path><path d="M78,356.81c1.28,1.08,4.89,2.06,4.89,2.06s-.07-2.58-.1-2.74c-.3-1.88-2-5.34-4.09-5.67a2.51,2.51,0,0,0-2.84,2.46C75.82,354.42,77,355.89,78,356.81Z" style="fill: rgb(38, 50, 56); transform-origin: 79.3745px 354.654px;" id="elrzgssq0lbic" class="animable"></path><path d="M51.67,368.15s-1.49-2.11-1.6-2.23c-1.28-1.4-4.6-3.36-6.54-2.47a2.52,2.52,0,0,0-1,3.62c.76,1.3,2.51,1.9,3.93,2.07C48.11,369.33,51.67,368.16,51.67,368.15Z" style="fill: rgb(38, 50, 56); transform-origin: 46.8999px 366.194px;" id="eluudntbs30o" class="animable"></path><path d="M49.79,360.17l0,0c.1.6.21,1.24.34,1.94.26,1.29.56,2.74,1,4.3a43.6,43.6,0,0,0,1.64,5,33.2,33.2,0,0,0,2.61,5.24l0,.06c-.47-.4-1.84-1.5-2-1.57-1.61-1-5.33-2-7-.66a2.52,2.52,0,0,0,0,3.76c1.08,1.05,2.93,1.17,4.34,1,1.59-.24,4.5-2.15,4.73-2.3a46.84,46.84,0,0,0,3.58,4.78c.75.88,1.53,1.75,2.33,2.61l-.86-.68c-1.61-1-5.33-2-7-.65a2.53,2.53,0,0,0,0,3.76,5.27,5.27,0,0,0,4.34.95,16.94,16.94,0,0,0,4.61-2.21c.31.32.61.65.92,1,1.49,1.56,3,3.11,4.4,4.68.5.55,1,1.11,1.45,1.67l-.75-.58c-1.61-1-5.33-2-7-.66a2.53,2.53,0,0,0,0,3.76c1.08,1.05,2.94,1.17,4.34,1a16.17,16.17,0,0,0,4.49-2.14c.47.58.94,1.17,1.37,1.77.28.41.58.78.84,1.21l0,.06.38-.86.22-.13-.65-.88c-.72-.95-1.49-1.88-2.29-2.79a16.71,16.71,0,0,0,4-3.09,5.29,5.29,0,0,0,1.11-4.31,2.52,2.52,0,0,0-3.36-1.67c-2,.84-2.74,4.61-2.56,6.5,0,.12.29,1.47.46,2.21-.49-.55-1-1.1-1.47-1.64-1.47-1.55-3-3.07-4.52-4.6l-1.38-1.4c.25-.15,3.25-1.88,4.18-3.19A5.27,5.27,0,0,0,68,377a2.53,2.53,0,0,0-3.36-1.68c-2,.84-2.74,4.61-2.56,6.51,0,.14.41,2.08.54,2.57-1-1-2-2.08-3-3.14a43.73,43.73,0,0,1-3.56-4.54c.12-.07,3.26-1.87,4.21-3.2a5.27,5.27,0,0,0,1.11-4.3A2.53,2.53,0,0,0,58,367.5c-2,.84-2.74,4.61-2.56,6.51,0,.15.45,2.23.55,2.6l-.2-.27a33.15,33.15,0,0,1-2.69-5.12c-.42-1-.77-1.94-1.09-2.88a16.78,16.78,0,0,0,4.43-2.67A5.26,5.26,0,0,0,58,361.52a2.53,2.53,0,0,0-3.16-2c-2,.62-3.22,4.28-3.26,6.19,0,.1.1,1.16.18,1.93-.13-.43-.28-.87-.41-1.28-.47-1.54-.8-3-1.08-4.27-.16-.73-.29-1.39-.4-2a16.7,16.7,0,0,0,2.68-4.39,5.24,5.24,0,0,0-.51-4.41,2.52,2.52,0,0,0-3.74-.35c-1.53,1.49-.9,5.28,0,7C48.36,358,49.77,360.2,49.79,360.17Z" style="fill: rgb(38, 50, 56); transform-origin: 60.4528px 373.769px;" id="elo4vhehdwc5" class="animable"></path><path d="M76.19,367.58c1.46.67,4.94.69,5.22.7a44.63,44.63,0,0,0,.34,6c.14,1.15.32,2.31.51,3.46-.17-.51-.32-1-.35-1-.78-1.74-3.32-4.63-5.44-4.39a2.53,2.53,0,0,0-2.1,3.12c.32,1.47,1.8,2.59,3.1,3.19a16.6,16.6,0,0,0,5.06.7c.08.44.15.88.23,1.32.38,2.13.77,4.24,1.09,6.33.11.74.19,1.47.28,2.2l-.3-.9c-.79-1.74-3.33-4.63-5.45-4.39A2.52,2.52,0,0,0,76.29,387c.32,1.47,1.8,2.59,3.09,3.19a11.21,11.21,0,0,0,3.42.63l2.33-1.31v0h0l1.84-1L92,383a2.3,2.3,0,0,0-.35-.1c-2.1-.38-4.83,2.33-5.73,4,0,.11-.56,1.39-.83,2.09-.1-.72-.2-1.44-.33-2.17-.36-2.1-.8-4.21-1.22-6.33-.14-.64-.26-1.29-.38-1.94.29,0,3.75.23,5.24-.34,1.33-.51,2.89-1.53,3.3-3A2.52,2.52,0,0,0,89.78,372c-2.1-.38-4.82,2.33-5.72,4-.07.13-.8,2-1,2.45-.27-1.43-.53-2.85-.73-4.26a43.82,43.82,0,0,1-.47-5.75c.14,0,3.75.24,5.28-.34a5.29,5.29,0,0,0,3.3-3,2.52,2.52,0,0,0-1.88-3.25c-2.1-.39-4.83,2.33-5.73,4-.07.13-.85,2.11-1,2.48,0-.11,0-.23,0-.34a34,34,0,0,1,.58-5.75c.19-1.05.43-2,.68-3,.67.11,3.73.59,5.16.21s3-1.2,3.61-2.59a2.53,2.53,0,0,0-1.51-3.44c-2-.61-5,1.79-6.13,3.36-.06.08-.56,1-.92,1.7.12-.43.24-.88.36-1.29.47-1.54,1-2.93,1.45-4.16.28-.69.54-1.31.78-1.89.72-.24,3.58-1.2,4.66-2.18s2.14-2.47,2-4a2.53,2.53,0,0,0-2.93-2.36c-2.1.4-3.66,3.92-3.9,5.81,0,.17,0,2.76,0,2.75l0,0c-.25.56-.51,1.15-.79,1.81-.49,1.22-1,2.6-1.54,4.14a45.9,45.9,0,0,0-1.37,5.05A33.45,33.45,0,0,0,81.4,368v.07c-.17-.6-.71-2.27-.76-2.39-.79-1.74-3.33-4.63-5.45-4.39a2.52,2.52,0,0,0-2.09,3.12C73.42,365.86,74.9,367,76.19,367.58Z" style="fill: rgb(38, 50, 56); transform-origin: 82.7919px 366.694px;" id="ellk0v4a5dj2p" class="animable"></path><path d="M221.22,389.76a2.52,2.52,0,0,0-2.09,3.12,5.24,5.24,0,0,0,3.09,3.19,10.31,10.31,0,0,0,3.06.6l.89-1.06.5-1.45h0C225.88,392.41,223.34,389.52,221.22,389.76Z" style="fill: rgb(38, 50, 56); transform-origin: 222.861px 393.208px;" id="ele4vb3hewtc" class="animable"></path><path d="M210.25,404.87a2.53,2.53,0,0,0-.59,3.71c.9,1.21,2.72,1.6,4.14,1.6a9.19,9.19,0,0,0,2.71-.62l.58-2.92-.06-.06C215.59,405.33,212.07,403.77,210.25,404.87Z" style="fill: rgb(38, 50, 56); transform-origin: 213.094px 407.338px;" id="eluu9y5htjmlb" class="animable"></path><path d="M220.2,398.47c-1.63,1-1.95,4.22-1.66,6.2l4.79-5.69A2.46,2.46,0,0,0,220.2,398.47Z" style="fill: rgb(38, 50, 56); transform-origin: 220.887px 401.396px;" id="el9g20v89u70e" class="animable"></path><path d="M205.43,391.32c.31.32.61.65.92,1,1.49,1.56,3,3.11,4.4,4.68.5.55,1,1.11,1.45,1.67l-.75-.58c-1.61-1-5.33-2-7-.66a2.53,2.53,0,0,0,0,3.76c1.08,1.05,2.94,1.17,4.34,1a16.17,16.17,0,0,0,4.49-2.14c.47.59.94,1.17,1.37,1.77.28.41.58.78.84,1.21l.79,1.24c.36.62.73,1.24,1.08,1.85l.77-.91c-.3-.5-.61-1-.94-1.53l-.82-1.23c-.26-.41-.59-.82-.89-1.23-.72-1-1.49-1.88-2.29-2.79a16.71,16.71,0,0,0,4-3.09,5.29,5.29,0,0,0,1.11-4.31A2.52,2.52,0,0,0,215,389.3c-2,.84-2.74,4.61-2.56,6.5,0,.12.29,1.47.46,2.21-.49-.55-1-1.1-1.47-1.63-1.47-1.55-3-3.08-4.52-4.61l-1.38-1.4c.25-.15,3.25-1.88,4.18-3.19a5.26,5.26,0,0,0,1.11-4.3,2.53,2.53,0,0,0-3.36-1.68c-2,.84-2.74,4.61-2.56,6.51,0,.14.41,2.08.54,2.57-1-1-2-2.08-3-3.14a43.73,43.73,0,0,1-3.56-4.54c.12-.07,3.26-1.87,4.21-3.2a5.27,5.27,0,0,0,1.11-4.3,2.53,2.53,0,0,0-3.36-1.68c-2,.84-2.74,4.61-2.56,6.51,0,.15.45,2.23.55,2.6l-.2-.27a33.15,33.15,0,0,1-2.69-5.12c-.42-1-.77-1.94-1.09-2.88a17,17,0,0,0,4.43-2.66c.95-1.07,1.86-2.68,1.57-4.16a2.53,2.53,0,0,0-3.16-2c-2,.62-3.22,4.29-3.26,6.19,0,.1.1,1.16.18,1.93-.13-.43-.28-.87-.41-1.28-.47-1.54-.8-3-1.08-4.27-.16-.73-.29-1.39-.4-2a16.7,16.7,0,0,0,2.68-4.39,5.24,5.24,0,0,0-.51-4.41,2.52,2.52,0,0,0-3.74-.35c-1.53,1.49-.9,5.29,0,7,.08.15,1.49,2.32,1.51,2.29l0,0c.1.6.21,1.24.34,1.94.26,1.29.56,2.74,1,4.3a43.6,43.6,0,0,0,1.64,5,33.72,33.72,0,0,0,2.61,5.25.1.1,0,0,1,0,.05c-.47-.4-1.84-1.5-1.95-1.57-1.61-1-5.33-2-7-.65a2.52,2.52,0,0,0,0,3.75c1.08,1.06,2.93,1.17,4.34,1,1.59-.24,4.5-2.15,4.73-2.3a46.84,46.84,0,0,0,3.58,4.78c.75.88,1.53,1.75,2.33,2.61l-.86-.68c-1.61-1-5.33-2-7-.65a2.52,2.52,0,0,0,0,3.76c1.07,1.05,2.93,1.17,4.33.95A16.94,16.94,0,0,0,205.43,391.32Z" style="fill: rgb(38, 50, 56); transform-origin: 203.426px 381.154px;" id="el6yvwgkf371w" class="animable"></path><path d="M220.88,362.73c1.28,1.08,4.89,2.06,4.89,2.06s-.07-2.58-.1-2.74c-.3-1.88-2-5.34-4.09-5.67a2.52,2.52,0,0,0-2.84,2.46C218.66,360.34,219.79,361.81,220.88,362.73Z" style="fill: rgb(38, 50, 56); transform-origin: 222.253px 360.575px;" id="elis6qe7t5gyh" class="animable"></path><path d="M194.51,374.08s-1.49-2.12-1.6-2.24c-1.28-1.4-4.6-3.36-6.54-2.47a2.52,2.52,0,0,0-1,3.62c.76,1.3,2.51,1.9,3.93,2.07C191,375.25,194.51,374.08,194.51,374.08Z" style="fill: rgb(38, 50, 56); transform-origin: 189.74px 372.114px;" id="elalmnmyxdgj" class="animable"></path><path d="M219,373.5c1.46.67,4.94.7,5.22.7a44.63,44.63,0,0,0,.34,5.95c.14,1.15.32,2.31.51,3.47-.17-.52-.32-1-.35-1-.78-1.74-3.32-4.63-5.44-4.39a2.53,2.53,0,0,0-2.1,3.12c.32,1.47,1.8,2.59,3.1,3.19a16.6,16.6,0,0,0,5.06.7c.08.44.15.88.23,1.32.38,2.13.77,4.25,1.09,6.33,0,.31.07.62.11.93l.63-1.8c-.34-1.86-.72-3.73-1.09-5.6-.13-.64-.26-1.29-.38-1.93a25,25,0,0,0,4.09-.09l1.76-5.09,1.39-1.21a2.19,2.19,0,0,0-.58-.19c-2.1-.38-4.82,2.33-5.72,4-.07.13-.8,2-1,2.45-.27-1.43-.53-2.85-.73-4.26a43.82,43.82,0,0,1-.47-5.75c.14,0,3.75.24,5.28-.34a5.29,5.29,0,0,0,3.3-3,2.52,2.52,0,0,0-1.88-3.25c-2.1-.39-4.83,2.33-5.73,4-.07.13-.85,2.11-1,2.48,0-.11,0-.22,0-.34a34,34,0,0,1,.58-5.75c.19-1,.43-2,.68-3,.67.11,3.73.59,5.16.21s3-1.2,3.61-2.59a2.53,2.53,0,0,0-1.51-3.44c-2-.61-5,1.79-6.13,3.36-.06.08-.56,1-.92,1.7.12-.43.24-.88.36-1.29.47-1.54,1-2.93,1.45-4.16.28-.69.54-1.31.78-1.89.72-.24,3.58-1.2,4.66-2.18s2.14-2.47,2-4a2.53,2.53,0,0,0-2.93-2.36c-2.1.4-3.66,3.92-3.89,5.81,0,.17-.05,2.76,0,2.75l0,0c-.25.56-.51,1.15-.78,1.81-.5,1.22-1.05,2.6-1.55,4.14a45.9,45.9,0,0,0-1.37,5.05,33.45,33.45,0,0,0-.71,5.82V374c-.17-.6-.71-2.27-.76-2.39-.79-1.74-3.33-4.63-5.45-4.39a2.52,2.52,0,0,0-2.09,3.12C216.26,371.78,217.74,372.9,219,373.5Z" style="fill: rgb(38, 50, 56); transform-origin: 225.562px 371.149px;" id="elolg2k268j5m" class="animable"></path></g><g id="freepik--character-3--inject-293" class="animable" style="transform-origin: 372.304px 327.94px;"><polyline points="370.64 286.16 366.65 281.21 370.24 278.38 372.65 281.39 371.83 283.3 372.51 284.82 371.1 285.83" style="fill: rgb(255, 255, 255); stroke: rgb(38, 50, 56); stroke-linecap: round; stroke-linejoin: round; transform-origin: 369.65px 282.27px;" id="el74pgsysq3gd" class="animable"></polyline><path d="M403,294.75s-2.73-2.44-3.75-2.28-14.4,2.4-14.4,2.4l-12.31-10.05-1.88,1.34,11.78,14.78,12.8-.8-2.75,14L380.84,323l19,11.35,3.83-12.08,15.13-14.9L412.92,300Z" style="fill: rgb(190, 212, 234); stroke: rgb(38, 50, 56); stroke-linecap: round; stroke-linejoin: round; transform-origin: 394.73px 309.585px;" id="eluslzccajmzr" class="animable"></path><polygon points="406.9 291.52 404.75 296.04 403.96 295.32 402.45 306.31 412.93 299.96 411.88 298.3 412.12 294.87 406.9 291.52" style="fill: rgb(255, 255, 255); stroke: rgb(38, 50, 56); stroke-linecap: round; stroke-linejoin: round; transform-origin: 407.69px 298.915px;" id="el9fdx0w5zc2d" class="animable"></polygon><polygon points="402.45 306.31 408.58 302.59 403.46 298.99 402.45 306.31" style="fill: rgb(255, 255, 255); stroke: rgb(38, 50, 56); stroke-linecap: round; stroke-linejoin: round; transform-origin: 405.515px 302.65px;" id="elrfr2w9vycnp" class="animable"></polygon><path d="M419,280.75s4.63-5.42,9.34-2,3.41,6.76,6.77,4.93,9.67-6.48,13.47-.56.87,12.12-1.52,13.54-1.76-1.29-1.71-2.6-3.87-3-4.74-.3-5.44,6.86-11.24,6.47-6.92-7.52-6.79-11.71a7.25,7.25,0,0,0-3.59-6.21Z" style="fill: rgb(38, 50, 56); stroke: rgb(38, 50, 56); stroke-linecap: round; stroke-linejoin: round; transform-origin: 434.699px 288.937px;" id="eletp93x9oyvh" class="animable"></path><path d="M407.9,279.63s-2.9,6.46-2.3,10.27.28,6.74,2.22,7.48,8.37-3.15,9.79-5.72,3.45-6.28,2.89-9.84S413.12,273.08,407.9,279.63Z" style="fill: rgb(255, 255, 255); stroke: rgb(38, 50, 56); stroke-linecap: round; stroke-linejoin: round; transform-origin: 413.057px 286.981px;" id="elg33s29o49bw" class="animable"></path><path d="M409,286.41c-.15.5-.47.84-.72.76s-.33-.54-.18-1,.47-.84.72-.76S409.11,285.91,409,286.41Z" style="fill: rgb(38, 50, 56); transform-origin: 408.541px 286.29px;" id="elnuzuk3bpzts" class="animable"></path><path d="M413.62,288.33c-.15.5-.48.85-.73.77s-.33-.54-.18-1,.48-.84.73-.77S413.77,287.83,413.62,288.33Z" style="fill: rgb(38, 50, 56); transform-origin: 413.165px 288.217px;" id="elai5394r6oup" class="animable"></path><path d="M410.17,287.24s.3.22-.12,1-1.43.5-1.32,1.17,1.38,1,1.38,1" style="fill: none; stroke: rgb(38, 50, 56); stroke-linecap: round; stroke-linejoin: round; transform-origin: 409.498px 288.825px;" id="el6jna7myy90w" class="animable"></path><path d="M407.84,291.57s1.61,1.52,3.05,1.15" style="fill: none; stroke: rgb(38, 50, 56); stroke-linecap: round; stroke-linejoin: round; transform-origin: 409.365px 292.174px;" id="el0sa2tats41a" class="animable"></path><line x1="415.14" y1="286.73" x2="412.15" y2="285.97" style="fill: none; stroke: rgb(38, 50, 56); stroke-linecap: round; stroke-linejoin: round; transform-origin: 413.645px 286.35px;" id="el8ebmiz26lct" class="animable"></line><line x1="409.79" y1="284.84" x2="408.36" y2="283.56" style="fill: none; stroke: rgb(38, 50, 56); stroke-linecap: round; stroke-linejoin: round; transform-origin: 409.075px 284.2px;" id="elfmz7zgch54v" class="animable"></line><path d="M407.9,279.63s-.43,1-.93,2.37c1.69-.88,4.6-1.87,7.26-.23s4,5.41,4.54,7.72c1.13-2.29,2.14-5,1.73-7.67C419.94,278.26,413.12,273.08,407.9,279.63Z" style="fill: rgb(38, 50, 56); stroke: rgb(38, 50, 56); stroke-linecap: round; stroke-linejoin: round; transform-origin: 413.782px 282.99px;" id="elwcb6fzzdnwr" class="animable"></path><path d="M418.08,289.39s2.08-1.91,2-.17-2.47,2.77-3,2.85-.49-.59-.49-.59" style="fill: rgb(255, 255, 255); stroke: rgb(38, 50, 56); stroke-linecap: round; stroke-linejoin: round; transform-origin: 418.336px 290.283px;" id="elt9v3c06rtm" class="animable"></path><path d="M418.79,307.38l-3.2,22.81a2.09,2.09,0,0,1-2,1.79l-.69,0a2.08,2.08,0,0,1-2.15-1.89l-1.25-13.72Z" style="fill: rgb(190, 212, 234); stroke: rgb(38, 50, 56); stroke-linecap: round; stroke-linejoin: round; transform-origin: 414.145px 319.681px;" id="elnc0z7cop18" class="animable"></path><path d="M413,327.06,402.73,318l-2.3,1.93,9.86,11.41A2.08,2.08,0,0,0,412,332l.81,0a2.09,2.09,0,0,0,1.94-2.6h0" style="fill: rgb(190, 212, 234); stroke: rgb(38, 50, 56); stroke-linecap: round; stroke-linejoin: round; transform-origin: 407.622px 325.004px;" id="elk2ky0j7az2i" class="animable"></path><polygon points="402.73 317.99 400.32 314.14 394.9 313.54 394.93 316.77 397.53 318.94 399.18 319.17 400.43 319.92 402.73 317.99" style="fill: rgb(255, 255, 255); stroke: rgb(38, 50, 56); stroke-linecap: round; stroke-linejoin: round; transform-origin: 398.815px 316.73px;" id="el6mf9bbazfzr" class="animable"></polygon><path d="M373.71,330s-11.32,14.73-10.7,17.17,17.16,28.27,17.16,28.27l2.3-1.52-9.09-28.38,18.27-7.27Z" style="fill: rgb(255, 255, 255); stroke: rgb(38, 50, 56); stroke-linecap: round; stroke-linejoin: round; transform-origin: 377.318px 352.72px;" id="elrhnd2pj7hya" class="animable"></path><polygon points="382.83 335.46 384.17 341.35 390.22 339.03 382.83 335.46" style="fill: rgb(38, 50, 56); stroke: rgb(38, 50, 56); stroke-miterlimit: 10; transform-origin: 386.525px 338.405px;" id="elnz7r8pk8k5g" class="animable"></polygon><path d="M380.17,375.39l-3,5s-2.39,3.58-1.69,3.8c1.53.49,5.49-2.11,6.62-2.91s2.34-1.33,3.09-1.86,2.25-.84.2-2.74c-.69-.63-2.88-2.81-2.88-2.81Z" style="fill: rgb(255, 255, 255); stroke: rgb(38, 50, 56); stroke-linecap: round; stroke-linejoin: round; transform-origin: 380.888px 379.061px;" id="eloo39papb6r" class="animable"></path><path d="M398.86,325.3a137.81,137.81,0,0,0-15.61-5.17c-9.17-2.49-15.95-4.42-15.82-2.13s16.81,39.18,16.81,39.18l2.86-.91-4.36-20.34s7,4.9,12.17,2.47,7.14-9,6.78-11.24" style="fill: rgb(38, 50, 56); stroke: rgb(38, 50, 56); stroke-linecap: round; stroke-linejoin: round; transform-origin: 384.58px 337.079px;" id="elzp8egf05z7o" class="animable"></path><path d="M381.3,319.6c-8.16-2.21-14-3.73-13.87-1.6.13,2.29,16.81,39.18,16.81,39.18l2.86-.91-4.36-20.34C384.23,332.3,382.65,324.67,381.3,319.6Z" style="fill: rgb(255, 255, 255); stroke: rgb(38, 50, 56); stroke-linecap: round; stroke-linejoin: round; transform-origin: 377.264px 337.078px;" id="elx95gnr1d38j" class="animable"></path><line x1="382.74" y1="335.93" x2="375.55" y2="325.5" style="fill: rgb(255, 255, 255); stroke: rgb(38, 50, 56); stroke-linecap: round; stroke-linejoin: round; transform-origin: 379.145px 330.715px;" id="elijlfra00217" class="animable"></line><path d="M384.24,357.18l-2.68,5.05s-5.41,5.24-4.21,5.51,11.37-4.1,12.13-5.14-2.38-6.33-2.38-6.33Z" style="fill: rgb(255, 255, 255); stroke: rgb(38, 50, 56); stroke-linecap: round; stroke-linejoin: round; transform-origin: 383.387px 362.011px;" id="el2pg3c6l4lm1" class="animable"></path><line x1="371.8" y1="283.72" x2="397.02" y2="313.75" style="fill: none; stroke: rgb(38, 50, 56); stroke-miterlimit: 10; transform-origin: 384.41px 298.735px;" id="elg4veursku5" class="animable"></line><line x1="294.2" y1="190.72" x2="368.21" y2="279.28" style="fill: none; stroke: rgb(38, 50, 56); stroke-miterlimit: 10; transform-origin: 331.205px 235px;" id="el34a9f95xv5c" class="animable"></line><line x1="399.18" y1="319.16" x2="399.18" y2="465.16" style="fill: none; stroke: rgb(38, 50, 56); stroke-miterlimit: 10; transform-origin: 399.18px 392.16px;" id="elvbmqfpn14c" class="animable"></line></g><g id="freepik--character-1--inject-293" class="animable" style="transform-origin: 155.805px 327.705px;"><path d="M158.33,278.59s5.32,31.13-.46,41-20.28,2.77-20.28,2.77v141.8" style="fill: none; stroke: rgb(38, 50, 56); stroke-miterlimit: 10; transform-origin: 149.077px 371.375px;" id="elb48ny63bqtv" class="animable"></path><path d="M126.39,290.24s4.71-.54,5.07.55a6.27,6.27,0,0,1,0,2.71s2.71,2.9,2.71,4.89-2.89,2.9-2.89,2.9l-.54,4.7-7.24.36-.91-5.61S119.87,290.06,126.39,290.24Z" style="fill: rgb(255, 255, 255); stroke: rgb(38, 50, 56); stroke-linecap: round; stroke-linejoin: round; transform-origin: 128.099px 298.228px;" id="elvdn5aj73aah" class="animable"></path><path d="M127.84,298l-2-2.9a7.3,7.3,0,0,0,1.08-3.62c0-2-.18-5.61-4.34-5.61s-6.88,3.26-7.78,10.32,3.25,10.5,9.23,9.23S127.84,298,127.84,298Z" style="fill: rgb(38, 50, 56); stroke: rgb(38, 50, 56); stroke-linecap: round; stroke-linejoin: round; transform-origin: 121.451px 295.775px;" id="elkjabfriefl" class="animable"></path><path d="M127.66,296.76s-3.08-.36-2.9,2a2.52,2.52,0,0,0,4.53,1.27" style="fill: rgb(255, 255, 255); stroke: rgb(38, 50, 56); stroke-linecap: round; stroke-linejoin: round; transform-origin: 127.021px 298.893px;" id="elbryojjzvpso" class="animable"></path><path d="M123.37,308.12,116.7,310s-.52,1.3-1.3,3c-1.05,2.31-3.94,7-3.94,7l-13.35,3.81-4.29,13.83-.95,5.72,7.62-3.82.48-13.34,12-1.85,5.15-13Z" style="fill: rgb(38, 50, 56); stroke: rgb(38, 50, 56); stroke-linecap: round; stroke-linejoin: round; transform-origin: 108.12px 325.74px;" id="elp21b0sz3u5f" class="animable"></path><path d="M134,306.17s-5.25-2.35-9.23-1.81-3.62,2.54-3.62,2.54l.18,2.71S128,307.62,134,306.17Z" style="fill: rgb(190, 212, 234); stroke: rgb(38, 50, 56); stroke-linecap: round; stroke-linejoin: round; transform-origin: 127.571px 306.945px;" id="eleva0qkdf2kl" class="animable"></path><path d="M116.07,319.39l3.75,17.34a1.32,1.32,0,0,0,1.9,1l8.47-4.23Z" style="fill: rgb(190, 212, 234); stroke: rgb(38, 50, 56); stroke-linecap: round; stroke-linejoin: round; transform-origin: 123.13px 328.63px;" id="elu4t3zw2qczs" class="animable"></path><line x1="125.49" y1="328.62" x2="123.5" y2="332.6" style="fill: rgb(255, 255, 255); stroke: rgb(38, 50, 56); stroke-linecap: round; stroke-linejoin: round; transform-origin: 124.495px 330.61px;" id="elbl6l1eh3ho" class="animable"></line><polygon points="143.04 346.18 153.97 364.26 152.52 388.71 157.77 388.53 163.02 359.37 155.35 338.94 143.04 346.18" style="fill: rgb(38, 50, 56); stroke: rgb(38, 50, 56); stroke-linecap: round; stroke-linejoin: round; transform-origin: 153.03px 363.825px;" id="eldomvvmzogye" class="animable"></polygon><path d="M121.32,309.61s-5.25,9.05-5.25,9.78,20.46,20.45,20.46,20.45l15.57-10.32-9.78-17L156.4,298.7l1.08-18.65-2.53-.18-4.53,13.58-15,11.82Z" style="fill: rgb(190, 212, 234); stroke: rgb(38, 50, 56); stroke-linecap: round; stroke-linejoin: round; transform-origin: 136.775px 309.855px;" id="el5xhm2zf1ag8" class="animable"></path><polygon points="154.95 279.87 155.13 275.71 159.65 272.27 160.02 273.17 160.02 275.89 160.2 278.06 157.48 280.05 154.95 279.87" style="fill: rgb(255, 255, 255); stroke: rgb(38, 50, 56); stroke-linecap: round; stroke-linejoin: round; transform-origin: 157.575px 276.16px;" id="elhwthzp86yj" class="animable"></polygon><path d="M136.53,339.84s3.44,5.79,6,7.6S153,343.64,155,342s9.6-11.4,9.6-11.4l7.06,30.08,4.35-1.81s-2.55-40-3.81-41.12-20.82,11.58-20.82,11.58Z" style="fill: rgb(38, 50, 56); stroke: rgb(38, 50, 56); stroke-linecap: round; stroke-linejoin: round; transform-origin: 156.27px 339.18px;" id="elh9b10nxrfr4" class="animable"></path><path d="M176,358.88h6.15c1.09,0,3.8-1.63,4-.36s-5.25,4.7-7.43,5.79a26.93,26.93,0,0,1-6.51,1.63l-.55-5.25Z" style="fill: rgb(255, 255, 255); stroke: rgb(38, 50, 56); stroke-linecap: round; stroke-linejoin: round; transform-origin: 178.908px 361.988px;" id="eltg8gcagelyq" class="animable"></path><path d="M157.77,388.53l3.08,5.61s3.8,1.63,3.8,2.36-6.15.36-6.7.36-6.69-6-6.69-6l1.26-2.18Z" style="fill: rgb(255, 255, 255); stroke: rgb(38, 50, 56); stroke-linecap: round; stroke-linejoin: round; transform-origin: 157.955px 392.742px;" id="elx7mdbvnn3sk" class="animable"></path><line x1="159.65" y1="272.27" x2="218.74" y2="191.25" style="fill: none; stroke: rgb(38, 50, 56); stroke-miterlimit: 10; transform-origin: 189.195px 231.76px;" id="elmrsa85eupls" class="animable"></line></g><g id="freepik--Floor--inject-293" class="animable" style="transform-origin: 249px 465.2px;"><line x1="12" y1="465.2" x2="486" y2="465.2" style="fill: none; stroke: rgb(38, 50, 56); stroke-linecap: round; stroke-linejoin: round; transform-origin: 249px 465.2px;" id="ele5e8mot62wu" class="animable"></line></g><defs>     <filter id="active" height="200%">         <feMorphology in="SourceAlpha" result="DILATED" operator="dilate" radius="2"></feMorphology>                <feFlood flood-color="#32DFEC" flood-opacity="1" result="PINK"></feFlood>        <feComposite in="PINK" in2="DILATED" operator="in" result="OUTLINE"></feComposite>        <feMerge>            <feMergeNode in="OUTLINE"></feMergeNode>            <feMergeNode in="SourceGraphic"></feMergeNode>        </feMerge>    </filter>    <filter id="hover" height="200%">        <feMorphology in="SourceAlpha" result="DILATED" operator="dilate" radius="2"></feMorphology>                <feFlood flood-color="#ff0000" flood-opacity="0.5" result="PINK"></feFlood>        <feComposite in="PINK" in2="DILATED" operator="in" result="OUTLINE"></feComposite>        <feMerge>            <feMergeNode in="OUTLINE"></feMergeNode>            <feMergeNode in="SourceGraphic"></feMergeNode>        </feMerge>            <feColorMatrix type="matrix" values="0   0   0   0   0                0   1   0   0   0                0   0   0   0   0                0   0   0   1   0 "></feColorMatrix>    </filter></defs></svg>